<svg height="512pt" viewBox="0 0 512 512" width="512pt" xmlns="http://www.w3.org/2000/svg"><path d="m256 0c-141.160156 0-256 114.839844-256 256s114.839844 256 256 256 256-114.839844 256-256-114.839844-256-256-256zm0 482c-124.617188 0-226-101.382812-226-226s101.382812-226 226-226 226 101.382812 226 226-101.382812 226-226 226zm0 0"/><path d="m330.882812 186.265625c10.039063-10.039063 23.386719-15.570313 37.585938-15.570313 14.195312 0 27.542969 5.53125 37.59375 15.578126 5.859375 5.855468 15.355469 5.851562 21.210938-.007813 5.855468-5.859375 5.851562-15.359375-.007813-21.214844-15.707031-15.703125-36.589844-24.355469-58.796875-24.355469-22.210938 0-43.09375 8.652344-58.800781 24.355469l-.007813.007813c-5.859375 5.859375-5.855468 15.351562.003906 21.210937 5.859376 5.859375 15.359376 5.851563 21.21875-.003906zm0 0"/><path d="m105.945312 186.265625c10.042969-10.039063 23.390626-15.570313 37.585938-15.570313 14.199219 0 27.546875 5.53125 37.597656 15.578126 5.859375 5.855468 15.355469 5.851562 21.210938-.007813 5.855468-5.859375 5.851562-15.359375-.007813-21.214844-15.707031-15.703125-36.589843-24.355469-58.800781-24.355469-22.207031 0-43.089844 8.652344-58.796875 24.355469l-.007813.007813c-5.859374 5.859375-5.855468 15.351562.003907 21.210937s15.359375 5.851563 21.214843-.003906zm0 0"/><path d="m416.667969 243h-321.335938c-8.28125 0-15 6.714844-15 15 0 97.019531 78.648438 175.667969 175.667969 175.667969s175.667969-78.648438 175.667969-175.667969c0-8.285156-6.71875-15-15-15zm-160.667969 160.667969c-75.949219 0-137.5-57.769531-144.910156-130.667969h289.820312c-7.410156 72.894531-68.953125 130.667969-144.910156 130.667969zm0 0"/></svg>