<svg height="512pt" viewBox="-44 0 512 512" width="512pt" xmlns="http://www.w3.org/2000/svg"><path d="m394.402344 79.84375h-28.34375c-12.046875-23.210938-35.992188-37.925781-62.464844-37.925781h-40.308594c-3.292968-23.648438-23.636718-41.917969-48.175781-41.917969h-5.375c-24.542969 0-44.886719 18.269531-48.179687 41.917969h-40.976563c-26.414063 0-50.414063 14.730469-62.464844 37.925781h-27.671875c-16.785156 0-30.441406 13.65625-30.441406 30.441406s13.65625 30.441406 30.441406 30.441406h20.964844l18.433594 338.59375c.996094 18.324219 16.152344 32.679688 34.507812 32.679688h124.207032c4.136718 0 7.484374-3.351562 7.484374-7.484375s-3.347656-7.484375-7.484374-7.484375h-124.207032c-10.402344 0-18.992187-8.136719-19.558594-18.523438l-18.390624-337.78125h40.230468c4.132813 0 7.484375-3.351562 7.484375-7.484374 0-4.136719-3.351562-7.484376-7.484375-7.484376h-76.1875c-8.53125 0-15.46875-6.941406-15.46875-15.472656 0-8.527344 6.9375-15.46875 15.46875-15.46875h363.960938c8.527344 0 15.46875 6.941406 15.46875 15.46875 0 8.53125-6.941406 15.46875-15.46875 15.46875l-252.839844-.046875h-.003906c-4.132813 0-7.484375 3.351563-7.484375 7.484375 0 4.132813 3.351562 7.484375 7.484375 7.488282l216.820312.039062-19.359375 337.84375c-.597656 10.355469-9.183593 18.46875-19.558593 18.46875h-55.824219c-4.132813 0-7.484375 3.351562-7.484375 7.484375s3.351562 7.484375 7.484375 7.484375h55.824219c18.300781 0 33.453124-14.3125 34.503906-32.578125l19.40625-338.699219 21.03125.003906c16.785156 0 30.441406-13.65625 30.441406-30.441406 0-16.789062-13.660156-30.441406-30.441406-30.441406zm-184.667969-64.871094h5.375c16.265625 0 29.875 11.589844 33.003906 26.945313h-71.386719c3.128907-15.355469 16.742188-26.945313 33.007813-26.945313zm-89.15625 41.917969h183.015625c18.082031 0 34.664062 8.714844 44.933594 22.953125h-272.875c10.28125-14.230469 26.890625-22.953125 44.925781-22.953125zm0 0"/><path d="m212.414062 172.128906c-11.917968 0-21.617187 9.695313-21.617187 21.617188v218.738281c0 11.921875 9.699219 21.617187 21.628906 21.617187 11.921875 0 21.617188-9.695312 21.617188-21.617187v-218.738281c0-11.921875-9.695313-21.617188-21.617188-21.617188zm6.660157 21.617188v218.738281c0 3.667969-2.980469 6.648437-6.660157 6.648437-3.664062 0-6.644531-2.980468-6.644531-6.648437v-218.738281c0-3.667969 2.980469-6.648438 6.644531-6.648438h.011719c3.667969 0 6.648438 2.980469 6.648438 6.648438zm0 0"/><path d="m308.871094 351.058594c4.113281.113281 7.578125-3.140625 7.691406-7.273438l4.226562-149.429687c.167969-5.886719-2-11.457031-6.105468-15.679688-4.105469-4.222656-9.613282-6.546875-15.5-6.546875-11.785156 0-21.277344 9.226563-21.609375 21.003906l-6.1875 218.742188c-.167969 5.886719 2.003906 11.457031 6.105469 15.679688 4.109374 4.222656 9.613281 6.546874 15.503906 6.546874 11.78125 0 21.273437-9.226562 21.609375-21.003906l.984375-34.863281c.117187-4.132813-3.136719-7.578125-7.269532-7.695313-4.109374-.105468-7.578124 3.136719-7.695312 7.269532l-.984375 34.863281c-.105469 3.625-3.023437 6.460937-6.644531 6.460937-1.8125 0-3.503906-.714843-4.765625-2.015624-1.261719-1.296876-1.929688-3.011719-1.878907-4.820313l6.1875-218.742187c.101563-3.621094 3.019532-6.457032 6.644532-6.457032 1.808594 0 3.503906.714844 4.765625 2.011719 1.261719 1.300781 1.929687 3.011719 1.875 4.824219l-4.226563 149.429687c-.117187 4.132813 3.140625 7.578125 7.273438 7.695313zm0 0"/><path d="m125.660156 172.128906c-5.890625 0-11.394531 2.324219-15.5 6.550782-4.105468 4.222656-6.277344 9.789062-6.109375 15.675781l6.1875 218.742187c.332031 11.78125 9.824219 21.007813 21.609375 21.007813 5.890625 0 11.394532-2.328125 15.5-6.550781 4.105469-4.222657 6.273438-9.792969 6.109375-15.679688l-6.1875-218.738281c-.332031-11.78125-9.828125-21.007813-21.609375-21.007813zm10.953125 244.988282c-1.261719 1.300781-2.957031 2.015624-4.765625 2.015624-3.625 0-6.542968-2.835937-6.644531-6.457031l-6.1875-218.742187c-.050781-1.8125.617187-3.523438 1.878906-4.820313 1.261719-1.300781 2.953125-2.015625 4.765625-2.015625 3.621094 0 6.542969 2.835938 6.644532 6.460938l6.1875 218.738281c.050781 1.8125-.617188 3.523437-1.878907 4.820313zm0 0"/></svg>